<svg xmlns="http://www.w3.org/2000/svg" xmlns:xlink="http://www.w3.org/1999/xlink" width="500" zoomAndPan="magnify" viewBox="0 0 375 374.999991" height="500" preserveAspectRatio="xMidYMid meet" version="1.0"><defs><clipPath id="5e07588911"><path d="M 47 32.84375 L 328 32.84375 L 328 326.09375 L 47 326.09375 Z M 47 32.84375 " clip-rule="nonzero"/></clipPath><clipPath id="a8c6f459c5"><path d="M 3.476562 155 L 35 155 L 35 257 L 3.476562 257 Z M 3.476562 155 " clip-rule="nonzero"/></clipPath><clipPath id="72528d5a29"><path d="M 339 155 L 371.726562 155 L 371.726562 257 L 339 257 Z M 339 155 " clip-rule="nonzero"/></clipPath></defs><rect x="-37.5" width="450" fill="#ffffff" y="-37.499999" height="449.999989" fill-opacity="1"/><rect x="-37.5" width="450" fill="#ffffff" y="-37.499999" height="449.999989" fill-opacity="1"/><g clip-path="url(#5e07588911)"><path fill="#000000" d="M 265.371094 326.070312 L 109.613281 326.070312 C 75.3125 326.070312 47.484375 298.238281 47.484375 264.148438 L 47.484375 163.175781 C 47.484375 128.875 75.3125 101.039062 109.613281 101.039062 L 180.804688 101.039062 L 181.019531 77.308594 C 171.742188 74.503906 164.839844 65.875 164.839844 55.515625 C 164.839844 43.003906 175.195312 32.863281 187.707031 32.863281 C 200.21875 32.863281 210.574219 43.003906 210.574219 55.515625 C 210.574219 65.875 203.457031 74.71875 193.964844 77.523438 L 193.75 101.039062 L 265.371094 101.039062 C 299.457031 101.039062 327.285156 128.875 327.285156 163.175781 L 327.285156 264.367188 C 327.285156 298.453125 299.457031 326.070312 265.371094 326.070312 Z M 129.03125 228.117188 C 110.691406 228.117188 96.238281 213.664062 96.238281 195.539062 C 96.238281 177.203125 110.691406 162.746094 129.03125 162.746094 C 147.367188 162.746094 161.605469 177.203125 161.605469 195.539062 C 161.605469 213.664062 147.367188 228.117188 129.03125 228.117188 Z M 129.03125 175.691406 C 117.8125 175.691406 109.183594 184.320312 109.183594 195.539062 C 109.183594 206.542969 117.8125 215.175781 129.03125 215.175781 C 140.03125 215.175781 148.875 206.542969 148.875 195.539062 C 148.875 184.320312 140.03125 175.691406 129.03125 175.691406 Z M 246.171875 226.824219 C 227.832031 226.824219 213.164062 212.152344 213.164062 194.03125 C 213.164062 175.90625 227.832031 161.234375 246.171875 161.234375 C 264.074219 161.234375 278.746094 175.90625 278.746094 194.03125 C 278.746094 212.152344 264.074219 226.824219 246.171875 226.824219 Z M 246.171875 174.179688 C 234.953125 174.179688 226.109375 183.242188 226.109375 194.03125 C 226.109375 205.035156 234.953125 214.09375 246.171875 214.09375 C 257.171875 214.09375 265.800781 205.035156 265.800781 194.03125 C 265.800781 182.8125 256.957031 174.179688 246.171875 174.179688 Z M 185.117188 266.089844 C 172.824219 266.089844 162.035156 260.265625 155.996094 255.089844 C 153.191406 252.714844 152.976562 248.398438 155.347656 246.027344 C 157.722656 243.4375 161.605469 243.007812 164.410156 245.59375 C 166.351562 247.320312 185.117188 262.207031 203.023438 245.8125 C 205.613281 243.4375 209.496094 243.4375 212.300781 246.027344 C 214.675781 248.832031 214.675781 252.714844 212.085938 255.304688 C 203.023438 263.070312 193.75 266.089844 185.117188 266.089844 Z M 185.117188 266.089844 " fill-opacity="1" fill-rule="evenodd"/></g><g clip-path="url(#a8c6f459c5)"><path fill="#000000" d="M 34.539062 256.8125 L 31.953125 256.8125 C 16.417969 256.8125 3.476562 244.085938 3.476562 228.335938 L 3.476562 184.320312 C 3.476562 168.570312 16.417969 155.625 31.953125 155.625 L 34.972656 155.625 C 34.753906 158 34.539062 160.589844 34.539062 163.175781 Z M 34.539062 256.8125 " fill-opacity="1" fill-rule="evenodd"/></g><g clip-path="url(#72528d5a29)"><path fill="#000000" d="M 342.816406 256.8125 L 340.230469 256.8125 L 340.230469 163.175781 C 340.230469 160.371094 340.011719 157.785156 339.796875 155.410156 L 342.816406 155.410156 C 358.78125 155.410156 371.726562 168.140625 371.726562 184.105469 L 371.726562 228.335938 C 371.726562 244.300781 358.78125 256.8125 342.816406 256.8125 Z M 342.816406 256.8125 " fill-opacity="1" fill-rule="evenodd"/></g></svg>